<?xml version="1.0" encoding="utf-8"?>
<!-- Generator: Adobe Illustrator 27.2.0, SVG Export Plug-In . SVG Version: 6.00 Build 0)  -->
<svg version="1.1" id="Capa_1" xmlns="http://www.w3.org/2000/svg" xmlns:xlink="http://www.w3.org/1999/xlink" x="0px" y="0px"
	 viewBox="0 0 615.3 500" style="enable-background:new 0 0 615.3 500;" xml:space="preserve">
<style type="text/css">
	.st0{fill:#5BA763;}
	.st1{fill:#FFFFFF;}
</style>
<g>
	<path class="st0" d="M469.5,250c0,89.1-72.3,161.3-161.3,161.3c-89.1,0-161.3-72.2-161.3-161.3S219.1,88.7,308.2,88.7
		C397.2,88.7,469.5,160.9,469.5,250 M307.9,0C169.9,0.1,58.1,112,58.1,250c0,138.1,111.9,250,250,250s250-111.9,250-250
		c0-138-111.8-249.9-249.8-250H307.9z"/>
</g>
<path class="st1" d="M307,28.3C184.6,28.3,85.3,127.5,85.3,250S184.6,471.6,307,471.6S528.7,372.4,528.7,250S429.4,28.3,307,28.3z
	 M307,439.6c-104.7,0-189.6-84.9-189.6-189.6S202.3,60.3,307,60.3S496.6,145.2,496.6,250S411.7,439.6,307,439.6z"/>
</svg>
