<?xml version="1.0" encoding="utf-8"?>
<!-- Generator: Adobe Illustrator 27.2.0, SVG Export Plug-In . SVG Version: 6.00 Build 0)  -->
<svg version="1.1" id="Capa_1" xmlns="http://www.w3.org/2000/svg" xmlns:xlink="http://www.w3.org/1999/xlink" x="0px" y="0px"
	 viewBox="0 0 615.3 500" style="enable-background:new 0 0 615.3 500;" xml:space="preserve">
<style type="text/css">
	.st0{fill:#D22730;}
	.st1{fill:#FFFFFF;}
</style>
<g>
	<path class="st0" d="M469.5,250c0,89.1-72.3,161.3-161.3,161.3c-89.1,0-161.3-72.2-161.3-161.3c0-89.1,72.2-161.3,161.3-161.3
		C397.2,88.7,469.5,160.9,469.5,250 M307.9,0C169.9,0.1,58.1,112,58.1,250c0,138.1,111.9,250,250,250c138.1,0,250-111.9,250-250
		c0-138-111.8-249.9-249.8-250H307.9z"/>
</g>
<path class="st1" d="M306.8,28.3C184.4,28.3,85.1,127.6,85.1,250s99.2,221.7,221.7,221.7S528.4,372.4,528.4,250
	S429.2,28.3,306.8,28.3z M306.8,439.6c-104.7,0-189.6-84.9-189.6-189.6S202,60.4,306.8,60.4S496.4,145.3,496.4,250
	S411.5,439.6,306.8,439.6z"/>
</svg>
